<?xml version="1.0"?>
<svg xmlns="http://www.w3.org/2000/svg" xmlns:xlink="http://www.w3.org/1999/xlink" version="1.1" id="Capa_1" x="0px" y="0px" width="512px" height="512px" viewBox="0 0 480.554 480.553" style="enable-background:new 0 0 480.554 480.553;" xml:space="preserve" class=""><g transform="matrix(6.12323e-17 1 -1 6.12323e-17 480.553 -0.000488281)"><g>
	<path d="M251.093,37.38c-2.235-3.859-6.357-6.235-10.816-6.235s-8.582,2.376-10.816,6.235L1.684,430.645   c-2.24,3.867-2.245,8.636-0.013,12.507s6.361,6.257,10.83,6.257h455.553c4.469,0,8.598-2.386,10.83-6.257   c2.231-3.871,2.227-8.641-0.014-12.507L251.093,37.38z M34.186,424.409L240.276,68.585l206.091,355.824H34.186L34.186,424.409z" data-original="#000000" class="active-path" data-old_color="#a6acad" fill="#a6acad"/>
</g></g> </svg>
